<svg width="216" height="70" viewBox="0 0 216 70" fill="none" xmlns="http://www.w3.org/2000/svg">
<path d="M30.3848 19.4504V29.5829H0.733398V19.4504H30.3848ZM7.52067 68.0862V15.9357C7.52067 12.4104 8.19836 9.48681 9.55374 7.16479C10.93 4.84277 12.8066 3.10125 15.1837 1.94024C17.5609 0.779236 20.2612 0.19873 23.2847 0.19873C25.3282 0.19873 27.1944 0.357052 28.8834 0.673694C30.5933 0.990332 31.8653 1.27532 32.6993 1.52863L30.3222 11.6611C29.8009 11.4922 29.1545 11.3339 28.383 11.1861C27.6323 11.0384 26.8608 10.9645 26.0684 10.9645C24.1084 10.9645 22.7426 11.4289 21.971 12.3577C21.1995 13.2654 20.8137 14.5425 20.8137 16.189V68.0862H7.52067ZM50.5043 69.0046C47.4392 69.0046 44.7073 68.4663 42.3093 67.3896C39.9114 66.2918 38.014 64.6771 36.6169 62.545C35.2406 60.392 34.5525 57.7111 34.5525 54.5026C34.5525 51.8005 35.0425 49.5312 36.0227 47.6948C37.0026 45.858 38.337 44.3804 40.0263 43.2618C41.7152 42.1427 43.6334 41.2986 45.7811 40.7287C47.95 40.1588 50.2228 39.7576 52.5998 39.5254C55.3941 39.23 57.646 38.9554 59.3558 38.7021C61.0656 38.4275 62.3064 38.0266 63.0778 37.4987C63.8492 36.9711 64.2353 36.1902 64.2353 35.1559V34.9656C64.2353 32.9603 63.6096 31.4088 62.3585 30.3112C61.1284 29.2135 59.3767 28.6646 57.1039 28.6646C54.706 28.6646 52.798 29.2029 51.3799 30.2795C49.9622 31.3349 49.0238 32.6648 48.5651 34.2691L36.2415 33.2559C36.8672 30.3006 38.0974 27.7464 39.9323 25.5932C41.7673 23.419 44.134 21.7513 47.0325 20.5903C49.9516 19.4082 53.3298 18.8171 57.1663 18.8171C59.8354 18.8171 62.3897 19.1338 64.8295 19.7671C67.2898 20.4003 69.469 21.3819 71.3664 22.7118C73.285 24.0417 74.7966 25.7515 75.9017 27.8413C77.007 29.9101 77.5594 32.3904 77.5594 35.2826V68.0862H64.9234V61.342H64.548C63.7766 62.8619 62.7442 64.202 61.4513 65.363C60.1588 66.5032 58.6053 67.4 56.7909 68.0547C54.9768 68.6877 52.8813 69.0046 50.5043 69.0046ZM54.3203 59.6954C56.28 59.6954 58.0108 59.3049 59.5121 58.5236C61.0135 57.7215 62.1915 56.6452 63.0466 55.2939C63.9014 53.9431 64.3289 52.4124 64.3289 50.7026V45.5414C63.912 45.816 63.3384 46.0694 62.6088 46.3016C61.8998 46.5126 61.0968 46.7132 60.2002 46.9031C59.3037 47.0717 58.4071 47.2304 57.5105 47.3779C56.614 47.5046 55.8007 47.6209 55.0708 47.7264C53.507 47.9586 52.1411 48.3279 50.9733 48.8346C49.8055 49.341 48.8987 50.0272 48.252 50.8929C47.6058 51.737 47.2825 52.7925 47.2825 54.059C47.2825 55.8958 47.9394 57.2994 49.2532 58.2706C50.5876 59.2202 52.2765 59.6954 54.3203 59.6954ZM127.87 33.3192L115.672 34.0792C115.463 33.0237 115.015 32.0738 114.327 31.2294C113.638 30.3639 112.731 29.6779 111.605 29.1713C110.5 28.6435 109.176 28.3796 107.633 28.3796C105.569 28.3796 103.828 28.8229 102.41 29.7095C100.992 30.575 100.283 31.736 100.283 33.1926C100.283 34.3536 100.742 35.3353 101.659 36.1374C102.577 36.9396 104.151 37.5834 106.382 38.069L115.077 39.8419C119.748 40.8131 123.23 42.3749 125.524 44.5283C127.818 46.6813 128.964 49.5101 128.964 53.0143C128.964 56.2016 128.037 58.9988 126.181 61.4051C124.346 63.8115 121.823 65.6903 118.612 67.0415C115.421 68.3712 111.741 69.0362 107.571 69.0362C101.211 69.0362 96.1439 67.6958 92.3697 65.0148C88.6161 62.3128 86.4164 58.6399 85.7701 53.9958L98.8754 53.2992C99.2714 55.2624 100.231 56.7611 101.753 57.7954C103.275 58.8085 105.225 59.3153 107.602 59.3153C109.937 59.3153 111.814 58.8613 113.232 57.9537C114.671 57.0249 115.4 55.8323 115.421 54.3759C115.4 53.1514 114.89 52.1486 113.889 51.3677C112.888 50.5656 111.345 49.9533 109.259 49.5312L100.94 47.8531C96.2481 46.9031 92.7554 45.2565 90.4617 42.9133C88.1886 40.5701 87.0524 37.5834 87.0524 33.9525C87.0524 30.8283 87.8866 28.1369 89.5545 25.8782C91.2434 23.6195 93.6102 21.878 96.6547 20.6536C99.7199 19.4293 103.306 18.8171 107.414 18.8171C113.482 18.8171 118.257 20.1154 121.739 22.7118C125.242 25.3083 127.286 28.844 127.87 33.3192ZM162.909 19.4504V29.5829H133.977V19.4504H162.909ZM140.545 7.79809H153.87V53.141C153.87 54.3863 154.057 55.3575 154.433 56.0541C154.808 56.7295 155.329 57.2043 155.996 57.4789C156.685 57.753 157.477 57.8905 158.373 57.8905C158.999 57.8905 159.625 57.8378 160.25 57.7322C160.876 57.6056 161.355 57.5104 161.689 57.4473L163.785 67.4847C163.118 67.6958 162.179 67.9384 160.97 68.2129C159.76 68.5083 158.29 68.6877 156.559 68.7513C153.348 68.878 150.533 68.4451 148.115 67.4528C145.717 66.4608 143.85 64.9197 142.516 62.8299C141.181 60.7401 140.524 58.1015 140.545 54.9139V7.79809ZM184.913 39.9686V68.0862H171.588V19.4504H184.287V28.0313H184.85C185.914 25.2027 187.697 22.9651 190.199 21.3186C192.701 19.651 195.735 18.8171 199.3 18.8171C202.637 18.8171 205.546 19.556 208.027 21.0336C210.508 22.5112 212.437 24.6222 213.814 27.3664C215.19 30.0895 215.878 33.3403 215.878 37.119V68.0862H202.554V39.5254C202.574 36.5491 201.824 34.2269 200.302 32.5593C198.779 30.8705 196.684 30.0262 194.015 30.0262C192.221 30.0262 190.637 30.4167 189.26 31.1977C187.905 31.9788 186.841 33.1187 186.07 34.6175C185.32 36.0951 184.934 37.8788 184.913 39.9686Z" fill="#EF8435"/>
</svg>
